<?xml version="1.0" encoding="utf-8"?>
<!-- Generator: Adobe Illustrator 16.0.0, SVG Export Plug-In . SVG Version: 6.00 Build 0)  -->
<!DOCTYPE svg PUBLIC "-//W3C//DTD SVG 1.1//EN" "http://www.w3.org/Graphics/SVG/1.1/DTD/svg11.dtd">
<svg version="1.1" id="Layer_1"
	xmlns="http://www.w3.org/2000/svg"
	xmlns:xlink="http://www.w3.org/1999/xlink" x="0px" y="0px" width="24px" height="24px" viewBox="0 0 24 24" enable-background="new 0 0 24 24" xml:space="preserve">
	<g>
		<path fill="#FFFFFF" d="M12.187,22.32l-4.148-1.509l3.034,3.034C11.208,23.98,11.366,24,11.447,24c0.081,0,0.238-0.02,0.374-0.155
		l1.594-1.593c-0.212,0.098-0.437,0.167-0.675,0.167C12.557,22.418,12.37,22.387,12.187,22.32z"/>
		<path fill="#FFFFFF" d="M14.2,21.467l9.646-9.646c0.206-0.206,0.206-0.541,0-0.747l-4.282-4.283l-5.3,14.562
		C14.248,21.395,14.218,21.426,14.2,21.467z"/>
		<path fill="#FFFFFF" d="M12.74,21.328c0.185,0,0.41-0.107,0.497-0.349l0.784-2.153c-0.052,0.014-0.102,0.035-0.157,0.044
		l-5.366,0.946l4.062,1.479C12.619,21.317,12.68,21.328,12.74,21.328z"/>
		<path fill="#FFFFFF" d="M19.054,5c0.1-0.274-0.042-0.578-0.315-0.677l-6.193-2.254l2.472,14.021L19.054,5z"/>
		<path fill="#FFFFFF" d="M11.15,0.438C11.105,0.184,10.888,0,10.632,0c-0.031,0-0.062,0.002-0.094,0.008L0.437,1.79
		C0.15,1.84-0.042,2.115,0.008,2.402l2.953,16.746c0.044,0.254,0.263,0.438,0.519,0.438c0.031,0,0.063-0.003,0.094-0.008
		l10.102-1.781c0.287-0.05,0.479-0.325,0.428-0.612L11.15,0.438z M7.11,12.532L6.296,7.92C6.024,8.214,5.752,8.46,5.485,8.66
		c-0.269,0.2-0.613,0.407-1.033,0.62L4.175,7.704c0.618-0.326,1.082-0.668,1.392-1.029c0.31-0.359,0.528-0.775,0.656-1.245
		l1.591-0.28l1.241,7.04L7.11,12.532z"/>
	</g>
</svg>
